<?xml version="1.0" encoding="utf-8"?>
<!-- Generator: Adobe Illustrator 21.0.0, SVG Export Plug-In . SVG Version: 6.00 Build 0)  -->
<svg version="1.1" id="图层_1" xmlns="http://www.w3.org/2000/svg" xmlns:xlink="http://www.w3.org/1999/xlink" x="0px" y="0px"
	 width="30px" height="16.9px" viewBox="0 0 30 16.9" style="enable-background:new 0 0 30 16.9;" xml:space="preserve">
<style type="text/css">
	.st0{clip-path:url(#SVGID_2_);}
	.st1{opacity:0.2;clip-path:url(#SVGID_4_);}
	.st2{clip-path:url(#SVGID_6_);fill:#FFFFFF;}
	.st3{clip-path:url(#SVGID_8_);fill:#FFFFFF;}
	.st4{clip-path:url(#SVGID_4_);fill:#002233;}
	.st5{clip-path:url(#SVGID_4_);fill:#ED6B1A;}
	.st6{clip-path:url(#SVGID_4_);fill:#F5C644;}
	.st7{clip-path:url(#SVGID_4_);fill:#EFEA3A;}
	.st8{clip-path:url(#SVGID_10_);fill:#FFFFFF;}
	.st9{clip-path:url(#SVGID_12_);fill:#FFFFFF;}
	.st10{clip-path:url(#SVGID_14_);fill:#FFFFFF;}
	.st11{clip-path:url(#SVGID_4_);fill:#040000;}
	.st12{clip-path:url(#SVGID_16_);fill:#FFFFFF;}
	.st13{clip-path:url(#SVGID_18_);fill:#FFFFFF;}
	.st14{clip-path:url(#SVGID_20_);fill:#FFFFFF;}
	.st15{clip-path:url(#SVGID_22_);fill:#FFFFFF;}
	.st16{clip-path:url(#SVGID_24_);fill:#FFFFFF;}
	.st17{clip-path:url(#SVGID_26_);fill:#FFFFFF;}
	.st18{clip-path:url(#SVGID_4_);fill:#EF7D3A;}
	.st19{clip-path:url(#SVGID_4_);fill:#FFFFFF;}
	.st20{opacity:0.1;clip-path:url(#SVGID_4_);}
	.st21{clip-path:url(#SVGID_28_);fill:#FFFFFF;}
	.st22{clip-path:url(#SVGID_4_);fill:#E686B4;}
	.st23{clip-path:url(#SVGID_30_);fill:#FFFFFF;}
</style>
<g>
	<defs>
		<rect id="SVGID_1_" x="0.9" y="0.4" width="28.1" height="17.1"/>
	</defs>
	<clipPath id="SVGID_2_">
		<use xlink:href="#SVGID_1_"  style="overflow:visible;"/>
	</clipPath>
	<g class="st0">
		<defs>
			<rect id="SVGID_3_" x="0.9" y="0.4" width="28.1" height="17.1"/>
		</defs>
		<clipPath id="SVGID_4_">
			<use xlink:href="#SVGID_3_"  style="overflow:visible;"/>
		</clipPath>
		<g class="st1">
			<g>
				<defs>
					<rect id="SVGID_5_" x="1.9" y="0.4" width="27" height="16"/>
				</defs>
				<clipPath id="SVGID_6_">
					<use xlink:href="#SVGID_5_"  style="overflow:visible;"/>
				</clipPath>
				<path class="st2" d="M21,0.4c-0.1,0-0.1,0.1-0.1,0.1v1.7h-5.7h-1H5c-0.6,0-1.2,0.2-1.7,0.6v0C3,3.1,2.7,3.4,2.5,3.7v0
					C2.5,3.9,2.4,4,2.4,4.1c0-0.1-0.1-0.2-0.2-0.2C2,3.9,1.9,4,1.9,4.1v8.5c0,0.1,0.1,0.2,0.2,0.2c0.1,0,0.2-0.1,0.2-0.2
					c0,0.1,0.1,0.2,0.1,0.3c0,0,0,0,0,0c0,0,0,0.1,0.1,0.1c0,0,0,0,0,0c0,0,0,0.1,0.1,0.1c0,0,0,0,0,0c0,0,0,0.1,0.1,0.1
					c0,0,0,0,0,0c0,0,0.1,0.1,0.1,0.1c0,0,0,0,0,0c0.5,0.6,1.3,1,2.1,1h10.1c0.1,0,0.2,0,0.3,0h5.4v1.8c0,0,0,0.1,0.1,0.1v0
					c0,0,0,0,0,0H21c0,0,0,0,0,0l0,0h0.1c0.2,0,0.4-0.2,0.4-0.4v-1.5h2.2c0,0.1,0.1,0.2,0.2,0.2h1c0.1,0,0.2-0.1,0.2-0.2h0.4h0.6
					c0,0.2,0.2,0.4,0.4,0.4c1.4,0,2.5-1.1,2.5-2.5v-8c0-1.4-1.1-2.5-2.5-2.5c-0.2,0-0.4,0.2-0.4,0.4h-0.6H25c0-0.1-0.1-0.2-0.2-0.2
					h-1c-0.1,0-0.2,0.1-0.2,0.2h-2.2V0.9c0-0.2-0.2-0.4-0.4-0.4L21,0.4L21,0.4z"/>
			</g>
		</g>
		<g class="st1">
			<g>
				<defs>
					<rect id="SVGID_7_" x="2" y="0.5" width="27" height="16"/>
				</defs>
				<clipPath id="SVGID_8_">
					<use xlink:href="#SVGID_7_"  style="overflow:visible;"/>
				</clipPath>
				<path class="st3" d="M21,0.5c-0.1,0-0.1,0.1-0.1,0.1v1.7h-5.7h-1H5.1c-0.6,0-1.2,0.2-1.7,0.6v0C3,3.1,2.8,3.5,2.6,3.8v0
					C2.6,3.9,2.5,4.1,2.5,4.2C2.5,4.1,2.4,4,2.2,4C2.1,4,2,4.1,2,4.2v8.5c0,0.1,0.1,0.2,0.2,0.2c0.1,0,0.2-0.1,0.2-0.2
					c0,0.1,0.1,0.2,0.1,0.3c0,0,0,0,0,0c0,0,0,0.1,0.1,0.1c0,0,0,0,0,0c0,0,0,0.1,0.1,0.1c0,0,0,0,0,0c0,0,0,0.1,0.1,0.1
					c0,0,0,0,0,0c0,0,0.1,0.1,0.1,0.1c0,0,0,0,0,0c0.5,0.6,1.3,1,2.1,1h10.1c0.1,0,0.2,0,0.3,0h5.4v1.8c0,0,0,0.1,0.1,0.1v0
					c0,0,0,0,0,0H21c0,0,0,0,0,0l0,0h0.1c0.2,0,0.4-0.2,0.4-0.4v-1.5h2.2c0,0.1,0.1,0.2,0.2,0.2h1c0.1,0,0.2-0.1,0.2-0.2h0.4h0.6
					c0,0.2,0.2,0.4,0.4,0.4c1.4,0,2.5-1.1,2.5-2.5v-8c0-1.4-1.1-2.5-2.5-2.5c-0.2,0-0.4,0.2-0.4,0.4h-0.6h-0.4
					c0-0.1-0.1-0.2-0.2-0.2h-1c-0.1,0-0.2,0.1-0.2,0.2h-2.2V0.9c0-0.2-0.2-0.4-0.4-0.4L21,0.5L21,0.5z"/>
			</g>
		</g>
		<path class="st4" d="M26.1,2.2c0,0.2,0.2,0.4,0.4,0.4c1,0,1.8,0.8,1.8,1.8v8c0,1-0.8,1.8-1.8,1.8c-0.2,0-0.4,0.2-0.4,0.4
			c0,0.2,0.2,0.4,0.4,0.4c1.4,0,2.5-1.1,2.5-2.5v-8c0-1.4-1.1-2.5-2.5-2.5C26.2,1.8,26.1,2,26.1,2.2"/>
		<path class="st5" d="M15.1,2.2c1.5,0,2.7,1.2,2.7,2.7v6.8c0,1.5-1.2,2.7-2.7,2.7H5c-1.5,0-2.7-1.2-2.7-2.7V5
			c0-1.5,1.2-2.7,2.7-2.7H15.1z"/>
		<path class="st6" d="M24.8,14.3c0.1,0,0.2,0.1,0.2,0.2c0,0.1-0.1,0.2-0.2,0.2h-1c-0.1,0-0.2-0.1-0.2-0.2c0-0.1,0.1-0.2,0.2-0.2
			H24.8z"/>
		<path class="st6" d="M24.8,2.1c0.1,0,0.2,0.1,0.2,0.2c0,0.1-0.1,0.2-0.2,0.2h-1c-0.1,0-0.2-0.1-0.2-0.2c0-0.1,0.1-0.2,0.2-0.2
			H24.8z"/>
		<path class="st5" d="M26.4,2.2c1.2,0,2.1,1,2.1,2.1v8c0,1.2-1,2.1-2.1,2.1H14.1c-1.2,0-2.1-1-2.1-2.1v-8c0-1.2,1-2.1,2.1-2.1H26.4
			z"/>
		<path class="st7" d="M28.2,4.8c0.1,0,0.3,0,0.4,0V4.4c0-1.2-1-2.1-2.1-2.1h-1C25.5,3.6,26.7,4.8,28.2,4.8"/>
		<g class="st1">
			<g>
				<defs>
					<rect id="SVGID_9_" x="3.8" y="12.3" width="1.9" height="0.7"/>
				</defs>
				<clipPath id="SVGID_10_">
					<use xlink:href="#SVGID_9_"  style="overflow:visible;"/>
				</clipPath>
				<path class="st8" d="M4.1,12.3c-0.2,0-0.4,0.2-0.4,0.4c0,0.2,0.2,0.4,0.4,0.4h1.2c0.2,0,0.4-0.2,0.4-0.4c0-0.2-0.2-0.4-0.4-0.4
					H4.1z"/>
			</g>
		</g>
		<rect x="5.9" y="3.5" class="st6" width="17" height="9.7"/>
		<g class="st1">
			<g>
				<defs>
					<rect id="SVGID_11_" x="5.9" y="4.1" width="2.4" height="2.9"/>
				</defs>
				<clipPath id="SVGID_12_">
					<use xlink:href="#SVGID_11_"  style="overflow:visible;"/>
				</clipPath>
				<path class="st9" d="M8.2,4.7c0-0.2,0.1-0.4,0.1-0.7c0,0,0,0-0.1,0L5.9,6.4V7L8.2,4.7z"/>
			</g>
		</g>
		<g class="st1">
			<g>
				<defs>
					<rect id="SVGID_13_" x="5.9" y="5.6" width="2.2" height="2.9"/>
				</defs>
				<clipPath id="SVGID_14_">
					<use xlink:href="#SVGID_13_"  style="overflow:visible;"/>
				</clipPath>
				<path class="st10" d="M8.1,5.6L5.9,7.8v0.7L8,6.4C8,6.1,8.1,5.9,8.1,5.6"/>
			</g>
		</g>
		<rect x="8" y="4.1" class="st5" width="12.3" height="8.6"/>
		<rect x="13.9" y="5" class="st11" width="4.3" height="6.7"/>
		<g class="st1">
			<g>
				<defs>
					<rect id="SVGID_15_" x="5.9" y="7.6" width="2.1" height="4.7"/>
				</defs>
				<clipPath id="SVGID_16_">
					<use xlink:href="#SVGID_15_"  style="overflow:visible;"/>
				</clipPath>
				<path class="st12" d="M5.9,9.7v2.6L8,10.1C8,9.3,8,8.4,8,7.6"/>
			</g>
		</g>
		<path class="st5" d="M23.9,3.1c0,0.1-0.1,0.2-0.1,0.2l-4.8,1.2c-0.1,0-0.2,0-0.2-0.1c0-0.1,0-0.2,0.1-0.2l4.8-1.2
			C23.7,2.9,23.8,2.9,23.9,3.1C23.9,3,23.9,3.1,23.9,3.1"/>
		<path class="st5" d="M8.7,4.3C8.7,4.3,8.7,4.4,8.7,4.3C8.7,4.5,8.6,4.5,8.5,4.5L5.8,3.2C5.7,3.2,5.7,3.1,5.7,3
			c0-0.1,0.2-0.1,0.3-0.1l2.7,1.2C8.7,4.2,8.7,4.2,8.7,4.3"/>
		<path class="st5" d="M13.9,2.7v1.6c0,0.1-0.1,0.2-0.2,0.2c-0.1,0-0.2-0.1-0.2-0.2V2.7c0-0.1,0.1-0.2,0.2-0.2
			C13.8,2.5,13.9,2.6,13.9,2.7"/>
		<path class="st5" d="M23.9,13.7C23.9,13.7,23.9,13.7,23.9,13.7c0,0.2-0.1,0.2-0.2,0.2l-4.8-1.2c-0.1,0-0.2-0.1-0.1-0.2
			c0-0.1,0.1-0.2,0.2-0.1l4.8,1.2C23.8,13.5,23.9,13.6,23.9,13.7"/>
		<path class="st5" d="M8.7,12.4c0,0.1,0,0.1-0.1,0.2L6,13.8c-0.1,0-0.2,0-0.3-0.1c0-0.1,0-0.2,0.1-0.3l2.7-1.2
			C8.6,12.2,8.7,12.2,8.7,12.4C8.7,12.4,8.7,12.4,8.7,12.4"/>
		<path class="st5" d="M13.9,12.4v1.6c0,0.1-0.1,0.2-0.2,0.2c-0.1,0-0.2-0.1-0.2-0.2v-1.6c0-0.1,0.1-0.2,0.2-0.2
			C13.8,12.2,13.9,12.3,13.9,12.4"/>
		<path class="st5" d="M8.7,2.7v1.6c0,0.1-0.1,0.2-0.2,0.2c-0.1,0-0.2-0.1-0.2-0.2V2.7c0-0.1,0.1-0.2,0.2-0.2
			C8.6,2.5,8.7,2.6,8.7,2.7"/>
		<path class="st5" d="M8.7,12.4v1.6c0,0.1-0.1,0.2-0.2,0.2c-0.1,0-0.2-0.1-0.2-0.2v-1.6c0-0.1,0.1-0.2,0.2-0.2
			C8.6,12.2,8.7,12.3,8.7,12.4"/>
		<path class="st7" d="M16.2,2.7C16.2,2.7,16.1,2.7,16.2,2.7c-0.1,0.1-0.1,0.2,0,0.2H17c0.1,0,0.1,0,0.1-0.1c0-0.1,0-0.1-0.1-0.1
			H16.2z"/>
		<path class="st7" d="M8.9,2.7C8.8,2.7,8.8,2.7,8.9,2.7c-0.1,0.1-0.1,0.2,0,0.2h0.8c0.1,0,0.1,0,0.1-0.1c0-0.1,0-0.1-0.1-0.1H8.9z"
			/>
		<path class="st7" d="M16.2,13.9C16.2,13.9,16.1,13.9,16.2,13.9c-0.1,0.1-0.1,0.2,0,0.2H17c0.1,0,0.1,0,0.1-0.1
			c0-0.1,0-0.1-0.1-0.1H16.2z"/>
		<path class="st7" d="M8.9,13.9C8.8,13.9,8.8,13.9,8.9,13.9c-0.1,0.1-0.1,0.2,0,0.2h0.8c0.1,0,0.1,0,0.1-0.1c0-0.1,0-0.1-0.1-0.1
			H8.9z"/>
		<g class="st1">
			<g>
				<defs>
					<rect id="SVGID_17_" x="9.2" y="11.3" width="6.4" height="0.7"/>
				</defs>
				<clipPath id="SVGID_18_">
					<use xlink:href="#SVGID_17_"  style="overflow:visible;"/>
				</clipPath>
				<path class="st13" d="M9.5,11.3c-0.2,0-0.4,0.2-0.4,0.4c0,0.2,0.2,0.4,0.4,0.4h5.7c0.2,0,0.4-0.2,0.4-0.4c0-0.2-0.2-0.4-0.4-0.4
					H9.5z"/>
			</g>
		</g>
		<g class="st1">
			<g>
				<defs>
					<rect id="SVGID_19_" x="16.1" y="11.3" width="1.9" height="0.7"/>
				</defs>
				<clipPath id="SVGID_20_">
					<use xlink:href="#SVGID_19_"  style="overflow:visible;"/>
				</clipPath>
				<path class="st14" d="M16.5,11.3c-0.2,0-0.4,0.2-0.4,0.4c0,0.2,0.2,0.4,0.4,0.4h1.2c0.2,0,0.4-0.2,0.4-0.4
					c0-0.2-0.2-0.4-0.4-0.4H16.5z"/>
			</g>
		</g>
		<g class="st1">
			<g>
				<defs>
					<rect id="SVGID_21_" x="22.1" y="12.4" width="0.6" height="0.5"/>
				</defs>
				<clipPath id="SVGID_22_">
					<use xlink:href="#SVGID_21_"  style="overflow:visible;"/>
				</clipPath>
				<path class="st15" d="M22.4,12.4c-0.1,0-0.2,0-0.3,0.2c0,0.1,0,0.2,0.2,0.3l0.2,0.1c0.1,0,0.2,0,0.3-0.2c0-0.1,0-0.2-0.2-0.3
					L22.4,12.4z"/>
			</g>
		</g>
		<g class="st1">
			<g>
				<defs>
					<rect id="SVGID_23_" x="17.9" y="14.1" width="4.6" height="0.2"/>
				</defs>
				<clipPath id="SVGID_24_">
					<use xlink:href="#SVGID_23_"  style="overflow:visible;"/>
				</clipPath>
				<path class="st16" d="M18,14.1c-0.1,0-0.1,0-0.1,0.1c0,0.1,0,0.1,0.1,0.1h4.4c0.1,0,0.1,0,0.1-0.1c0-0.1,0-0.1-0.1-0.1H18z"/>
			</g>
		</g>
		<g class="st1">
			<g>
				<defs>
					<rect id="SVGID_25_" x="10.3" y="14.1" width="3.2" height="0.2"/>
				</defs>
				<clipPath id="SVGID_26_">
					<use xlink:href="#SVGID_25_"  style="overflow:visible;"/>
				</clipPath>
				<path class="st17" d="M10.4,14.1c-0.1,0-0.1,0-0.1,0.1c0,0.1,0,0.1,0.1,0.1h2.9c0.1,0,0.1,0,0.1-0.1c0-0.1,0-0.1-0.1-0.1H10.4z"
					/>
			</g>
		</g>
		<path class="st5" d="M20.9,2.7C20.9,2.8,20.9,2.8,20.9,2.7l0.2,0c0.2,0,0.4-0.2,0.4-0.4V0.9c0-0.2-0.2-0.4-0.4-0.4H21
			C21,1.4,20.9,1.8,20.9,2.7"/>
		<path class="st4" d="M21,0.4c-0.1,0-0.1,0.1-0.1,0.1v2.1c0,0.1,0.1,0.1,0.1,0.1c0.1,0,0.1-0.1,0.1-0.1V0.6C21.1,0.5,21,0.4,21,0.4
			"/>
		<path class="st5" d="M20.9,16.4C20.9,16.4,20.9,16.4,20.9,16.4l0.2,0c0.2,0,0.4-0.2,0.4-0.4v-1.5c0-0.2-0.2-0.4-0.4-0.4H21
			C21,15.1,20.9,15.4,20.9,16.4"/>
		<path class="st4" d="M21,14.1c-0.1,0-0.1,0.1-0.1,0.1v2.1c0,0.1,0.1,0.1,0.1,0.1c0.1,0,0.1-0.1,0.1-0.1v-2.1
			C21.1,14.1,21,14.1,21,14.1"/>
		<path class="st4" d="M2.2,3.9c0.1,0,0.2,0.1,0.2,0.2v8.5c0,0.1-0.1,0.2-0.2,0.2c-0.1,0-0.2-0.1-0.2-0.2V4.1C1.9,4,2,3.9,2.2,3.9"
			/>
		<path class="st18" d="M27.4,4.3C27.7,4.3,28,4,28,3.7C28,3.3,27.7,3,27.4,3s-0.6,0.3-0.6,0.6C26.7,4,27,4.3,27.4,4.3"/>
		<path class="st19" d="M26.5,3.1c0.1,0,0.3-0.1,0.3-0.3s-0.1-0.3-0.3-0.3c-0.1,0-0.3,0.1-0.3,0.3S26.3,3.1,26.5,3.1"/>
		<path class="st7" d="M28.2,12c0.1,0,0.3,0,0.4,0v0.4c0,1.2-1,2.1-2.1,2.1h-1C25.5,13.1,26.7,12,28.2,12"/>
		<path class="st18" d="M27.4,12.4c0.4,0,0.6,0.3,0.6,0.6s-0.3,0.6-0.6,0.6s-0.6-0.3-0.6-0.6S27,12.4,27.4,12.4"/>
		<path class="st19" d="M26.5,13.6c0.1,0,0.3,0.1,0.3,0.3s-0.1,0.3-0.3,0.3c-0.1,0-0.3-0.1-0.3-0.3S26.3,13.6,26.5,13.6"/>
		<g class="st20">
			<g>
				<defs>
					<rect id="SVGID_27_" x="13.9" y="5" width="4.3" height="6.7"/>
				</defs>
				<clipPath id="SVGID_28_">
					<use xlink:href="#SVGID_27_"  style="overflow:visible;"/>
				</clipPath>
				<polygon class="st21" points="13.9,9.7 16,11.7 18.2,11.7 18.2,11.1 13.9,6.8 				"/>
				<polygon class="st21" points="16,5 14.5,5 18.2,8.7 18.2,7.3 				"/>
				<polygon class="st21" points="13.9,5.7 13.9,6.2 18.2,10.5 18.2,10 				"/>
			</g>
		</g>
		<path class="st22" d="M3.3,13.9v-1.6c0-0.2-0.2-0.4-0.4-0.4c-0.2,0-0.4,0.2-0.4,0.4V13C2.7,13.4,3,13.7,3.3,13.9"/>
		<path class="st22" d="M3.3,2.8v1.6c0,0.2-0.2,0.4-0.4,0.4c-0.2,0-0.4-0.2-0.4-0.4V3.7C2.7,3.4,3,3.1,3.3,2.8"/>
		<g class="st1">
			<g>
				<defs>
					<rect id="SVGID_29_" x="23.4" y="13.4" width="1.9" height="0.7"/>
				</defs>
				<clipPath id="SVGID_30_">
					<use xlink:href="#SVGID_29_"  style="overflow:visible;"/>
				</clipPath>
				<path class="st23" d="M23.7,13.4c-0.2,0-0.4,0.2-0.4,0.4c0,0.2,0.2,0.4,0.4,0.4h1.2c0.2,0,0.4-0.2,0.4-0.4
					c0-0.2-0.2-0.4-0.4-0.4H23.7z"/>
			</g>
		</g>
	</g>
</g>
</svg>
