<?xml version="1.0" encoding="utf-8"?>
<!-- Generator: Adobe Illustrator 24.0.1, SVG Export Plug-In . SVG Version: 6.00 Build 0)  -->
<svg version="1.1" id="图层_1" xmlns="http://www.w3.org/2000/svg" xmlns:xlink="http://www.w3.org/1999/xlink" x="0px" y="0px"
	 width="53.2px" height="53.1px" viewBox="0 0 53.2 53.1" style="enable-background:new 0 0 53.2 53.1;" xml:space="preserve">
<style type="text/css">
	.st0{opacity:0.1;fill:#4D8AFF;stroke:#2668AA;stroke-width:0.25;stroke-miterlimit:10;}
	.st1{fill:#4D8AFF;}
	.st2{fill:#FFFFFF;}
</style>
<circle class="st0" cx="26.6" cy="26.6" r="26.4"/>
<path class="st1" d="M28.2,19.4l12.9,7.1c0.1,0.1,0.1,0.4,0,0.5l-12,5.1L28.2,19.4z"/>
<path class="st1" d="M21.9,32.7c-3.4-1.9-4.5-6.1-2.7-9.6c1.8-3.5,6-4.5,9.4-2.7h0.1c1.5,0.8,2.7,2.5,3.3,4.2
	c0.6,1.7,0.3,3.7-0.5,5.3C29.5,33.4,25.4,34.5,21.9,32.7L21.9,32.7z"/>
<path class="st2" d="M28.5,20.8L28.5,20.8c1.5,0.8,2.6,2.2,3.3,4c0.5,1.6,0.1,3.4-0.5,4.9c-1.9,3.1-5.7,4.2-9,2.6l0,0
	c-1.6-0.8-2.6-2.2-3.1-4c-0.5-1.8-0.4-3.4,0.4-4.9C21.3,20.4,25.4,19,28.5,20.8 M29.5,18.9c-4.3-2.3-9.6-0.8-11.8,3.4
	c-2.3,4.2-0.8,9.6,3.3,11.9h0.1c4.2,2.3,9.6,0.8,11.8-3.4C35.4,26.7,33.8,21.2,29.5,18.9C29.6,18.9,29.5,18.9,29.5,18.9z"/>
</svg>
