<?xml version="1.0" encoding="utf-8"?>
<!-- Generator: Adobe Illustrator 24.0.1, SVG Export Plug-In . SVG Version: 6.00 Build 0)  -->
<svg version="1.1" id="图层_1" xmlns="http://www.w3.org/2000/svg" xmlns:xlink="http://www.w3.org/1999/xlink" x="0px" y="0px"
	 width="36px" height="36px" viewBox="0 0 36 36" style="enable-background:new 0 0 36 36;" xml:space="preserve">
<style type="text/css">
	.st0{fill:#666666;}
</style>
<path class="st0" d="M18,30.5c-6.9,0-12.5-5.6-12.5-12.5S11.1,5.5,18,5.5S30.5,11.1,30.5,18S24.9,30.5,18,30.5z M18,6.9
	c-6.1,0-11.1,5-11.1,11.1s5,11.1,11.1,11.1s11.1-5,11.1-11.1S24.1,6.9,18,6.9z"/>
<path class="st0" d="M12.1,18c0,3.3,2.6,5.9,5.9,5.9s5.9-2.6,5.9-5.9l0,0c0-3.3-2.6-5.9-5.9-5.9S12.1,14.7,12.1,18L12.1,18z"/>
<path class="st0" d="M18,6.2c-0.4,0-0.7-0.3-0.7-0.7V1.8c0-0.4,0.3-0.7,0.7-0.7c0.4,0,0.7,0.3,0.7,0.7v3.7C18.7,5.9,18.4,6.2,18,6.2
	z M5.5,18.7H1.8c-0.4,0-0.7-0.3-0.7-0.7s0.3-0.7,0.7-0.7h3.7c0.4,0,0.7,0.3,0.7,0.7S5.9,18.7,5.5,18.7z M34.2,18.7h-3.7
	c-0.4,0-0.7-0.3-0.7-0.7s0.3-0.7,0.7-0.7h3.7c0.4,0,0.7,0.3,0.7,0.7S34.6,18.7,34.2,18.7z M18,34.9c-0.4,0-0.7-0.3-0.7-0.7v-3.7
	c0-0.4,0.3-0.7,0.7-0.7c0.4,0,0.7,0.3,0.7,0.7v3.7C18.7,34.6,18.4,34.9,18,34.9z"/>
</svg>
